<svg viewBox="0 0 16 16" fill="none" xmlns="http://www.w3.org/2000/svg" id="Heart--Streamline-Unicons" height="16" width="16">
  <desc>
    Heart Streamline Icon: https://streamlinehq.com
  </desc>
  <path d="M14.410466666666666 2.5185999999999997c-0.8313333333333334 -0.8333999999999999 -1.9331999999999998 -1.3421333333333332 -3.106733333333333 -1.434133333333333 -1.1735333333333333 -0.09206666666666666 -2.341333333333333 0.23859999999999998 -3.2923333333333336 0.9322666666666667 -0.9977999999999999 -0.7421333333333333 -2.2396666666666665 -1.0786666666666667 -3.4756 -0.9418 -1.236 0.13686666666666666 -2.3742 0.7369333333333332 -3.1854 1.6793999999999998S0.11513333333333332 4.9116 0.16373333333333334 6.1541999999999994c0.048666666666666664 1.2425333333333333 0.5662666666666667 2.420533333333333 1.4485999999999999 3.296666666666667l4.869866666666667 4.8777333333333335c0.4078 0.4014 0.9570666666666666 0.6263333333333333 1.5292 0.6263333333333333s1.1214 -0.22493333333333332 1.5292 -0.6263333333333333l4.869866666666667 -4.8777333333333335c0.9155333333333333 -0.9211999999999999 1.429533333333333 -2.1672666666666665 1.429533333333333 -3.4660666666666664 0 -1.2988666666666666 -0.514 -2.5449333333333333 -1.429533333333333 -3.4661999999999997Zm-1.1057333333333332 5.850133333333333 -4.869866666666667 4.869866666666667c-0.05539999999999999 0.056 -0.12140000000000001 0.10033333333333333 -0.19406666666666667 0.1307333333333333 -0.07266666666666666 0.030266666666666667 -0.15066666666666667 0.04593333333333333 -0.2294 0.04593333333333333 -0.0788 0 -0.15673333333333334 -0.015666666666666666 -0.2294 -0.04593333333333333 -0.07273333333333333 -0.0304 -0.13866666666666666 -0.07473333333333333 -0.19406666666666667 -0.1307333333333333l-4.869866666666667 -4.8934c-0.615 -0.6286666666666666 -0.9594 -1.4731333333333334 -0.9594 -2.3526S2.1030666666666664 4.268666666666666 2.718066666666666 3.6399999999999997c0.6266666666666666 -0.6187333333333334 1.4719333333333333 -0.9656666666666666 2.3526 -0.9656666666666666s1.7258666666666667 0.3469333333333333 2.3526 0.9656666666666666c0.07286666666666666 0.07353333333333333 0.1596 0.13186666666666666 0.2552 0.17166666666666666 0.09559999999999999 0.0398 0.19806666666666664 0.06033333333333333 0.3016 0.06033333333333333s0.206 -0.020533333333333334 0.3015333333333333 -0.06033333333333333c0.09559999999999999 -0.0398 0.18233333333333335 -0.09813333333333332 0.25526666666666664 -0.17166666666666666 0.6265999999999999 -0.6187333333333334 1.4718666666666667 -0.9656666666666666 2.3526 -0.9656666666666666 0.8805999999999999 0 1.7258666666666667 0.3469333333333333 2.3526 0.9656666666666666 0.6234 0.6204 0.9791333333333332 1.4603333333333333 0.9907999999999999 2.3398 0.0118 0.8794666666666666 -0.32139999999999996 1.7286000000000001 -0.9280666666666666 2.3653999999999997v0.023466666666666667Z" fill="#000000" stroke-width="0.6667"></path>
</svg>